<svg xmlns="http://www.w3.org/2000/svg" xmlns:xlink="http://www.w3.org/1999/xlink" width="180" zoomAndPan="magnify" viewBox="0 0 135 135.000003" height="180" preserveAspectRatio="xMidYMid meet" version="1.0"><defs><clipPath id="90d714f94b"><path d="M 2.984375 2.488281 L 132.015625 2.488281 L 132.015625 131.519531 L 2.984375 131.519531 Z M 2.984375 2.488281 " clip-rule="nonzero"/></clipPath><clipPath id="03d4fd690b"><path d="M 20.851562 2.488281 L 114.148438 2.488281 C 118.886719 2.488281 123.429688 4.371094 126.78125 7.722656 C 130.132812 11.074219 132.015625 15.617188 132.015625 20.355469 L 132.015625 113.652344 C 132.015625 118.390625 130.132812 122.933594 126.78125 126.285156 C 123.429688 129.636719 118.886719 131.519531 114.148438 131.519531 L 20.851562 131.519531 C 16.113281 131.519531 11.570312 129.636719 8.21875 126.285156 C 4.867188 122.933594 2.984375 118.390625 2.984375 113.652344 L 2.984375 20.355469 C 2.984375 15.617188 4.867188 11.074219 8.21875 7.722656 C 11.570312 4.371094 16.113281 2.488281 20.851562 2.488281 Z M 20.851562 2.488281 " clip-rule="nonzero"/></clipPath><clipPath id="c1d71e5e61"><path d="M 0.984375 0.488281 L 130.015625 0.488281 L 130.015625 129.519531 L 0.984375 129.519531 Z M 0.984375 0.488281 " clip-rule="nonzero"/></clipPath><clipPath id="89f6e7b321"><path d="M 18.851562 0.488281 L 112.148438 0.488281 C 116.886719 0.488281 121.429688 2.371094 124.78125 5.722656 C 128.132812 9.074219 130.015625 13.617188 130.015625 18.355469 L 130.015625 111.652344 C 130.015625 116.390625 128.132812 120.933594 124.78125 124.285156 C 121.429688 127.636719 116.886719 129.519531 112.148438 129.519531 L 18.851562 129.519531 C 14.113281 129.519531 9.570312 127.636719 6.21875 124.285156 C 2.867188 120.933594 0.984375 116.390625 0.984375 111.652344 L 0.984375 18.355469 C 0.984375 13.617188 2.867188 9.074219 6.21875 5.722656 C 9.570312 2.371094 14.113281 0.488281 18.851562 0.488281 Z M 18.851562 0.488281 " clip-rule="nonzero"/></clipPath><clipPath id="0a064a6c10"><rect x="0" width="131" y="0" height="130"/></clipPath><clipPath id="e0ef00ab2f"><path d="M 16.242188 74 L 118.980469 74 L 118.980469 93 L 16.242188 93 Z M 16.242188 74 " clip-rule="nonzero"/></clipPath><clipPath id="d57c0de166"><path d="M 16.242188 86.683594 C 16.242188 86.683594 35.242188 66.589844 64.09375 77.773438 C 98.746094 91.21875 107.574219 85.710938 118.746094 75.507812 C 118.746094 75.507812 106.035156 102.066406 68.953125 88.464844 C 29.378906 73.949219 16.242188 86.683594 16.242188 86.683594 Z M 16.242188 86.683594 " clip-rule="nonzero"/></clipPath><clipPath id="148b7ae1fc"><path d="M 16.242188 93 L 69 93 L 69 103 L 16.242188 103 Z M 16.242188 93 " clip-rule="nonzero"/></clipPath><clipPath id="1b04ab874c"><path d="M 16.242188 100.082031 C 16.242188 100.082031 25.921875 89.847656 40.617188 95.546875 C 58.269531 102.390625 62.761719 99.585938 68.457031 94.390625 C 68.457031 94.390625 61.980469 107.917969 43.09375 100.988281 C 22.933594 93.597656 16.242188 100.082031 16.242188 100.082031 Z M 16.242188 100.082031 " clip-rule="nonzero"/></clipPath><clipPath id="53f31d037a"><path d="M 80 48 L 105 48 L 105 77 L 80 77 Z M 80 48 " clip-rule="nonzero"/></clipPath><clipPath id="d83777936e"><path d="M 104.363281 76.257812 C 103.21875 76.03125 93.046875 73.578125 93.28125 58.167969 C 93.324219 55.445312 93.589844 53.1875 93.992188 50.910156 C 86.671875 47.476562 81.152344 48.578125 81.105469 48.578125 L 81.097656 48.578125 L 81.101562 48.375 C 81.089844 48.441406 79.273438 59.351562 90.53125 70.960938 C 96.160156 76.765625 101.183594 77.078125 104.355469 76.414062 C 104.359375 76.378906 104.359375 76.292969 104.363281 76.257812 Z M 104.363281 76.257812 " clip-rule="nonzero"/></clipPath><clipPath id="f3c3025418"><path d="M 94 31 L 117 31 L 117 75 L 94 75 Z M 94 31 " clip-rule="nonzero"/></clipPath><clipPath id="63837b591a"><path d="M 105.132812 31.039062 L 105.132812 31.035156 L 105.132812 31.039062 L 105.132812 31.035156 L 105.132812 31.039062 C 105.132812 31.078125 96.761719 36.839844 94.316406 50.703125 C 97.359375 52.132812 100.546875 54.285156 103.957031 57.59375 C 112.976562 66.339844 108.792969 73.664062 108.066406 74.792969 C 108.074219 74.824219 108.042969 74.855469 108.050781 74.886719 C 111.398438 72.960938 116.191406 68.472656 116.03125 58.167969 C 115.734375 38.851562 105.132812 31.085938 105.132812 31.039062 Z M 105.132812 31.039062 " clip-rule="nonzero"/></clipPath></defs><g clip-path="url(#90d714f94b)"><g clip-path="url(#03d4fd690b)"><g transform="matrix(1, 0, 0, 1, 2, 2)"><g clip-path="url(#0a064a6c10)"><g clip-path="url(#c1d71e5e61)"><g clip-path="url(#89f6e7b321)"><path fill="#ffffff" d="M 0.984375 0.488281 L 130.015625 0.488281 L 130.015625 129.519531 L 0.984375 129.519531 Z M 0.984375 0.488281 " fill-opacity="1" fill-rule="nonzero"/></g></g></g></g></g></g><g clip-path="url(#e0ef00ab2f)"><g clip-path="url(#d57c0de166)"><path fill="#000000" d="M 16.242188 102.066406 L 16.242188 66.589844 L 118.746094 66.589844 L 118.746094 102.066406 Z M 16.242188 102.066406 " fill-opacity="1" fill-rule="nonzero"/></g></g><g clip-path="url(#148b7ae1fc)"><g clip-path="url(#1b04ab874c)"><path fill="#000000" d="M 16.242188 107.917969 L 16.242188 89.847656 L 68.457031 89.847656 L 68.457031 107.917969 Z M 16.242188 107.917969 " fill-opacity="1" fill-rule="nonzero"/></g></g><g clip-path="url(#53f31d037a)"><g clip-path="url(#d83777936e)"><path fill="#000000" d="M 79.273438 77.078125 L 79.273438 47.476562 L 104.363281 47.476562 L 104.363281 77.078125 Z M 79.273438 77.078125 " fill-opacity="1" fill-rule="nonzero"/></g></g><g clip-path="url(#f3c3025418)"><g clip-path="url(#63837b591a)"><path fill="#000000" d="M 94.316406 74.886719 L 94.316406 31.035156 L 116.191406 31.035156 L 116.191406 74.886719 Z M 94.316406 74.886719 " fill-opacity="1" fill-rule="nonzero"/></g></g></svg>